<?xml version="1.0" encoding="utf-8"?>
<!-- Generator: Adobe Illustrator 23.0.3, SVG Export Plug-In . SVG Version: 6.00 Build 0)  -->
<svg version="1.1" id="Layer_1" xmlns="http://www.w3.org/2000/svg" xmlns:xlink="http://www.w3.org/1999/xlink" x="0px" y="0px"
	 viewBox="0 0 256 256" style="enable-background:new 0 0 256 256;" xml:space="preserve">
<style type="text/css">
	.st0{fill-rule:evenodd;clip-rule:evenodd;fill:#228A31;}
	.st1{enable-background:new    ;}
	.st2{fill-rule:evenodd;clip-rule:evenodd;fill:#FFFFFF;}
</style>
<g id="Background_1_">
	<g id="Background">
		<g>
			<path class="st0" d="M249.4,30.7c-2.7-5-5.8-9.5-9.8-13.5c-4-4-8.7-7.6-13.7-10.3c-8.4-4.6-18.8-6.9-29-6.9H59.1
				C48.6,0,38.5,2.3,29.8,6.9c-5,2.7-9.6,6.1-13.5,10.1c-3.9,4-7.5,8.5-10,13.6C2,39.2,0,49.1,0,59.3v137.4
				c0,10.3,1.7,20.7,6.3,29.1c2.7,4.9,6.2,9.9,10.1,13.8c3.9,4,8.6,7.2,13.5,10c8.5,4.7,18.8,6.4,29.2,6.4h137.8
				c10.6,0,20.4-1.5,29-6.4c4.7-2.7,9.9-6.1,13.7-10c3.9-4,7.2-8.9,9.9-13.8c4.6-8.4,6.5-18.9,6.5-29.1V59.3
				C256,49,254,39.1,249.4,30.7z"/>
		</g>
	</g>
</g>
<g id="Shape_1_1_" class="st1">
	<g id="Shape_1">
		<g>
			<path class="st2" d="M204.5,49.2h-153v18.5h153L204.5,49.2L204.5,49.2z M167.4,188.2l9.4-32.5h18.2c0,0,0-49.2,0-73.9H60.9
				c0,24.6,0,73.9,0,73.9h17.9l9.8,32.5c0,0-27.8,0-41.7,0v18.5h162.1v-18.5C195.2,188.2,167.4,188.2,167.4,188.2z M84,137.1v-36.8
				H172v36.8H84z M148.5,187.9h-41l-9.8-32.2H158L148.5,187.9z"/>
		</g>
	</g>
</g>
</svg>
